<?xml version="1.0" encoding="UTF-8"?>
<svg version="1.1" xmlns="http://www.w3.org/2000/svg" width="368" height="490">
	<path id="layer0" fill="#000000" stroke="#FFFFFF" transform="translate(195.78,0.68)" d="M0 0 C0.96824707 0.00829834 1.93649414 0.01659668 2.93408203 0.02514648 C17.46757042 0.36552907 32.2750606 5.61990214 44.51879883 13.50146484 C48.55732727 15.8183124 52.11559993 16.09080324 56.703125 16.1953125 C57.48838562 16.22930145 58.27364624 16.26329041 59.08270264 16.29830933 C61.57564697 16.40372558 64.06855609 16.48463982 66.5625 16.5625 C93.40825682 17.52333972 93.40825682 17.52333972 99.0625 21.25 C100.3125 23.4375 100.3125 23.4375 100.1003418 25.86035156 C98.19515143 32.09251442 91.34948724 35.56641845 85.94921875 38.578125 C83.97082203 39.62348163 81.98753733 40.65962869 80 41.6875 C77.87422628 42.82016366 75.74923681 43.95430032 73.625 45.08984375 C70.55060568 46.72229458 67.47491621 48.35202494 64.39453125 49.97314453 C61.74953899 51.37538214 59.12364595 52.80831773 56.5 54.25 C55.71262451 54.65702148 54.92524902 55.06404297 54.11401367 55.48339844 C49.42905201 58.09385178 47.31243724 60.24241474 45.79516602 65.43237305 C45.63588623 66.09406494 45.47660645 66.75575684 45.3125 67.4375 C44.86003906 69.09265625 44.86003906 69.09265625 44.3984375 70.78125 C44.16382813 71.8228125 43.92921875 72.864375 43.6875 73.9375 C43.44773438 74.9790625 43.20796875 76.020625 42.9609375 77.09375 C37.3298362 106.13123625 44.44786477 134.95543587 58.34033203 160.61376953 C59.2529414 162.32577153 60.11097912 164.06654843 60.96484375 165.80859375 C71.22012827 186.29590817 85.46890653 205.26805421 99.3125 223.4375 C99.80830566 224.09556641 100.30411133 224.75363281 100.81494141 225.43164062 C106.11529667 232.45607922 111.56005236 238.8825268 117.90625 245.0078125 C121.26728475 248.4015846 124.20465567 252.08075276 127.1796875 255.8125 C129.06559864 258.13362141 131.0228233 260.31524169 133.0625 262.5 C152.71996362 284.39841447 173.06382087 314.58949778 171.73828125 345.12109375 C171.22648203 351.77448356 169.4134554 356.98638537 165.0625 362.0625 C164.485 362.51625 163.9075 362.97 163.3125 363.4375 C153.62093046 359.16160537 145.81160944 349.12303693 138.37133789 341.68164062 C136.75359808 340.0660932 135.12799364 338.45874966 133.50195312 336.8515625 C126.97538581 330.35970438 121.02083456 323.66964216 115.3125 316.4375 C113.94042079 314.76842798 112.56580596 313.10143373 111.1875 311.4375 C108.4230768 308.02134639 106.18692003 304.55763037 104 300.75 C100.83823596 295.63538169 97.45799515 293.26833839 92.296875 290.32421875 C85.16115714 285.81302539 79.24591592 279.38669838 73.3125 273.4375 C73.24518677 275.09628174 73.24518677 275.09628174 73.17651367 276.78857422 C70.98918631 329.71712875 63.63700993 378.96709006 41.20556641 427.50439453 C39.89115898 430.34952246 38.60389879 433.2068717 37.3125 436.0625 C36.64666163 437.5212117 35.98038057 438.97972221 35.3125 440.4375 C36.08851563 440.47488281 36.86453125 440.51226562 37.6640625 440.55078125 C65.54650479 442.24768406 65.54650479 442.24768406 74.05859375 451.29296875 C76.30557677 455.1359397 75.80205703 459.12667835 75.3125 463.4375 C74.1875 466.9375 74.1875 466.9375 72.3125 469.4375 C69.125 470.8125 69.125 470.8125 66.3125 471.4375 C65.52875 470.6125 64.745 469.7875 63.9375 468.9375 C61.67528736 466.20761494 61.67528736 466.20761494 59.3125 466.4375 C57.3325 470.0675 55.3525 473.6975 53.3125 477.4375 C48.3125 474.4375 48.3125 474.4375 46.3125 471.4375 C45.3225 471.4375 44.3325 471.4375 43.3125 471.4375 C41.10081775 474.37986782 41.10081775 474.37986782 39.3125 477.4375 C36.64583333 476.10416667 33.97916667 474.77083333 31.3125 473.4375 C31.6425 475.4175 31.9725 477.3975 32.3125 479.4375 C29.0125 479.1075 25.7125 478.7775 22.3125 478.4375 C20.9925 481.7375 19.6725 485.0375 18.3125 488.4375 C14.3125 486.4375 14.3125 486.4375 11.4375 483.8125 C8.55420698 481.2383317 8.55420698 481.2383317 5.3125 480.9375 C2.18317298 481.30015081 2.18317298 481.30015081 -0.8125 483.0625 C-3.6875 484.4375 -3.6875 484.4375 -5.75 483.9375 C-7.6875 482.4375 -7.6875 482.4375 -9.9375 480 C-14.32884024 475.90806933 -18.08525706 474.43134085 -23.98828125 474.4453125 C-28.39033049 474.7489021 -32.48995405 475.03831802 -36.6875 476.4375 C-42.08795593 477.07592599 -46.56120549 476.79546804 -51.1796875 473.77734375 C-53.92913098 471.33418542 -55.18725379 468.79805151 -56.6875 465.4375 C-56.6875 464.1175 -56.6875 462.7975 -56.6875 461.4375 C-57.31914062 461.63085938 -57.95078125 461.82421875 -58.6015625 462.0234375 C-74.08402769 466.52986109 -90.07542228 467.48130745 -106.125 467.625 C-107.38594482 467.64457764 -107.38594482 467.64457764 -108.67236328 467.66455078 C-113.73338356 467.67161502 -117.90645218 467.13196886 -122.6875 465.4375 C-123.6875 464.4375 -123.6875 464.4375 -124.25 461.1875 C-123.6875 457.4375 -123.6875 457.4375 -120.6875 455.0625 C-119.03540365 454.16029136 -117.36550117 453.29056205 -115.6875 452.4375 C-98.94563795 443.74067066 -84.55341823 433.88046134 -78.3828125 415.109375 C-75.53286727 404.15790007 -80.15211197 393.20484114 -83.48828125 382.80078125 C-96.08210133 342.94266392 -100.04816182 302.05099754 -100.6875 260.4375 C-101.6767749 261.73095337 -101.6767749 261.73095337 -102.68603516 263.05053711 C-115.32682194 279.55102471 -127.6521837 294.90343829 -145.27734375 306.21875 C-162.75076263 317.46557139 -175.10403019 338.53364587 -181.78515625 357.87109375 C-182.59719869 360.18066901 -183.53948935 362.27923997 -184.6875 364.4375 C-187.4375 364.75 -187.4375 364.75 -190.6875 364.4375 C-193.83767596 361.5484197 -194.63610056 359.79197888 -195.25390625 355.53125 C-195.2821831 354.00026056 -195.27898144 352.46847627 -195.25 350.9375 C-195.23904297 350.10798828 -195.22808594 349.27847656 -195.21679688 348.42382812 C-194.64549765 331.44989341 -188.94960846 315.6132824 -181.6875 300.4375 C-181.31496094 299.65665039 -180.94242188 298.87580078 -180.55859375 298.07128906 C-170.38572249 277.09620789 -156.62568346 257.99363814 -140.86328125 240.859375 C-138.56839933 238.30492834 -136.40558866 235.67277893 -134.25 233 C-131.17413412 229.19662497 -127.99996834 225.53667348 -124.6875 221.9375 C-120.62444724 217.51759977 -116.78777112 212.96922847 -113.01953125 208.296875 C-110.98268577 205.79943632 -108.90421513 203.34519032 -106.80249023 200.90234375 C-100.30988116 193.34021349 -94.23615965 185.48933596 -88.25439453 177.51904297 C-86.79359522 175.57844232 -85.31841843 173.64972329 -83.83984375 171.72265625 C-76.91671494 162.60463004 -70.85468736 153.01420722 -65.20544434 143.05696106 C-64.22350168 141.36245852 -63.2036754 139.68911819 -62.14039612 138.04443359 C-57.51649525 130.50727342 -56.71403266 124.123519 -56.515625 115.390625 C-56.46430867 114.04886947 -56.41035373 112.70721262 -56.35394287 111.36566162 C-56.21236997 107.85044323 -56.10278465 104.33499931 -56.00140381 100.81842041 C-55.89640465 97.31714478 -55.7668777 93.81682351 -55.63671875 90.31640625 C-55.61129816 89.63198078 -55.58587757 88.94755531 -55.55968666 88.24238968 C-55.50841712 86.86921712 -55.45688264 85.49605443 -55.40507889 84.12290192 C-55.35384527 82.76155017 -55.30320229 81.40017607 -55.25315475 80.03878021 C-54.9253362 71.16914856 -54.50793996 62.31714625 -53.8046875 53.46875 C-53.70815887 52.11937347 -53.70815887 52.11937347 -53.60968018 50.74273682 C-52.45638343 37.56440774 -46.11527488 26.46335595 -37.6875 16.4375 C-37.13449219 15.77234375 -36.58148438 15.1071875 -36.01171875 14.421875 C-26.73720287 4.23982892 -13.43009353 -0.14948483 0 0 Z "/>
	<path id="layer1" fill="#FFFFFF" stroke="#000000" transform="translate(195.78,0.68)" d="M0 0 M-37.875 79.1875 C-40.69239663 82.68495789 -40.80890462 85.92903173 -40.93359375 90.32421875 C-40.96646484 91.26330078 -40.99933594 92.20238281 -41.03320312 93.16992188 C-41.09379123 95.1203431 -41.15115008 97.07086765 -41.20507812 99.02148438 C-41.5543645 108.68946759 -43.56252783 116.77520779 -47.25 125.6875 C-47.59643555 126.54230957 -47.94287109 127.39711914 -48.29980469 128.27783203 C-50.16524023 132.84989641 -52.09237424 137.39128811 -54.07421875 141.9140625 C-58.34989016 151.67172411 -62.09190954 161.08203548 -64.6875 171.4375 C-65.02612061 172.5087915 -65.36474121 173.58008301 -65.71362305 174.68383789 C-67.36018604 181.03026709 -67.07703845 187.48453179 -67.0625 194 C-67.06328552 194.74283234 -67.06407104 195.48566467 -67.06488037 196.25100708 C-67.04158537 214.78565127 -64.57729711 232.82127472 -61.09912109 251.01977539 C-59.68242294 259.34098643 -60.65169847 264.21109272 -64.97265625 271.48046875 C-84.40083056 304.98189916 -85.4242585 347.4479541 -76.07421875 384.0703125 C-70.09948606 405.90922275 -61.80629698 428.19883418 -41.6875 440.8125 C-40.03692468 441.71748834 -38.37010709 442.59355914 -36.6875 443.4375 C-35.88570312 443.85 -35.08390625 444.2625 -34.2578125 444.6875 C-26.98460256 448.03364132 -19.55378415 449.17014081 -11.87890625 446.4375 C-5.20659845 442.94767482 -2.01099454 438.52008205 0.3125 431.4375 C1.22572163 427.78968693 1.83610408 424.16557503 2.3125 420.4375 C2.42335938 419.62152344 2.53421875 418.80554688 2.6484375 417.96484375 C2.8885906 416.12475177 3.10375445 414.281419 3.3125 412.4375 C3.47105469 413.18773437 3.62960938 413.93796875 3.79296875 414.7109375 C6.41655999 426.54431174 6.41655999 426.54431174 13.29296875 436.20703125 C15.32831181 437.66993204 15.32831181 437.66993204 18.1875 437.5625 C24.98719346 435.11461036 27.59273505 429.18589929 30.53515625 423.0078125 C35.07590708 413.26956055 38.41645688 403.11753121 41.8125 392.9375 C42.47610065 390.96276343 43.13983855 388.98807297 43.80371094 387.01342773 C45.38350351 382.30206727 46.94925697 377.58620212 48.50805664 372.86785889 C49.21110292 370.74383766 49.91935705 368.62168769 50.63085938 366.50048828 C59.23030953 340.71355303 60.46755001 315.10926002 60.62109375 288.11328125 C60.63095149 286.38083695 60.63095149 286.38083695 60.64100838 284.61339378 C60.67341044 278.50309852 60.69791088 272.39281933 60.7175293 266.2824707 C60.7353337 261.26951478 60.77017047 256.25712217 60.82006836 251.24438477 C60.8807186 245.13974007 60.91106348 239.03561658 60.92070198 232.93068504 C60.92917566 230.62693366 60.94778876 228.32319315 60.9774456 226.01961708 C61.15638953 211.33458879 59.63061637 199.14912281 54.3125 185.4375 C53.64693155 183.54701491 52.98421974 181.65551254 52.328125 179.76171875 C51.74685849 178.21339508 51.15843773 176.66773626 50.5625 175.125 C50.23668945 174.27164063 49.91087891 173.41828125 49.57519531 172.5390625 C46.98698551 165.88574114 44.06788052 159.41113835 41.0625 152.9375 C32.49884965 134.44181407 29.9807483 117.4423032 30.25 97.1875 C30.27765175 94.64594367 30.30227713 92.10444195 30.32118225 89.56280518 C30.33342168 87.9946777 30.35100812 86.42658087 30.37449646 84.85858154 C30.39138676 83.05151513 30.35722423 81.24409183 30.3125 79.4375 C29.26426272 78.18286421 29.26426272 78.18286421 26.93359375 78.15625 C24.27653703 78.17784891 24.27653703 78.17784891 22.72265625 79.90625 C22.27792969 80.5765625 21.83320313 81.246875 21.375 81.9375 C20.61703125 83.02804688 20.61703125 83.02804688 19.84375 84.140625 C19.08578125 85.27757813 19.08578125 85.27757813 18.3125 86.4375 C11.50190305 96.50848911 11.50190305 96.50848911 5.3125 98.4375 C0.53441999 99.3293116 -3.64979895 99.49521216 -8.04296875 97.21484375 C-13.31026934 93.2713603 -17.73379803 88.37066334 -22.328125 83.68359375 C-26.56178572 79.65320482 -32.31177048 74.73691638 -37.875 79.1875 Z "/>
	<path id="layer2" fill="#FFFFFF" stroke="#000000" transform="translate(224,27)"		 d="M0 0 C3.19520044 2.66266704 4.81272287 4.10094419 5.22265625 8.2578125 C4.9793398 11.85414825 4.36123813 14.39793644 2.5 17.5 C-1.23002722 19.73801633 -4.66411073 20.4275877 -9 20 C-11.94409163 18.72341255 -12.84114179 17.59062985 -15 15 C-16.06179824 11.28370618 -16.265724 8.97432132 -15.25 5.25 C-13.64117631 2.35411736 -12.33116821 0.57050066 -9.25 -0.75 C-5.85344873 -1.12739459 -3.32012197 -0.87371631 0 0 Z "/>
	<path id="layer3" fill="#000000" stroke="#FFFFFF" transform="translate(221,31)"		 d="M0 0 C1.8125 1.1875 1.8125 1.1875 3 3 C3.4334014 5.88934264 3.42525784 7.35092224 1.8125 9.8125 C-0.64907776 11.42525784 -2.11065736 11.4334014 -5 11 C-6.8125 9.8125 -6.8125 9.8125 -8 8 C-8.4334014 5.11065736 -8.42525784 3.64907776 -6.8125 1.1875 C-4.35092224 -0.42525784 -2.88934264 -0.4334014 0 0 Z "/>
</svg>